<svg width="9" height="12" viewBox="0 0 9 12" fill="none" xmlns="http://www.w3.org/2000/svg">
<path d="M7.67839 2.05494C6.95011 0.798129 5.65655 0.030293 4.21808 0.000949219C4.15667 -0.000316406 4.09487 -0.000316406 4.03344 0.000949219C2.59498 0.030293 1.30142 0.798129 0.573126 2.05494C-0.171295 3.3396 -0.191662 4.88272 0.518634 6.18282L3.49433 11.6294C3.49566 11.6318 3.497 11.6342 3.49838 11.6366C3.6293 11.8642 3.86384 12 4.1258 12C4.38774 12 4.62228 11.8641 4.75318 11.6366C4.75456 11.6342 4.7559 11.6318 4.75723 11.6294L7.73293 6.18282C8.44318 4.88272 8.42281 3.3396 7.67839 2.05494ZM4.12576 5.43751C3.19527 5.43751 2.43826 4.6805 2.43826 3.75001C2.43826 2.81952 3.19527 2.06251 4.12576 2.06251C5.05625 2.06251 5.81326 2.81952 5.81326 3.75001C5.81326 4.6805 5.05627 5.43751 4.12576 5.43751Z" fill="#F59A32"/>
</svg>
