<svg width="14" height="14" viewBox="0 0 14 14" fill="none" xmlns="http://www.w3.org/2000/svg">
<path d="M2.91667 0H0.583333C0.261333 0 0 0.261333 0 0.583333V2.91667C0 3.23867 0.261333 3.5 0.583333 3.5H2.91667C3.23867 3.5 3.5 3.23867 3.5 2.91667V0.583333C3.5 0.261333 3.23867 0 2.91667 0Z" fill="#717171"/>
<path d="M13.4166 0H5.24996C4.92796 0 4.66663 0.261333 4.66663 0.583333V2.91667C4.66663 3.23867 4.92796 3.5 5.24996 3.5H13.4166C13.7386 3.5 14 3.23867 14 2.91667V0.583333C14 0.261333 13.7386 0 13.4166 0Z" fill="#717171"/>
<path d="M2.91667 5.25H0.583333C0.261333 5.25 0 5.51133 0 5.83333V8.16667C0 8.48867 0.261333 8.75 0.583333 8.75H2.91667C3.23867 8.75 3.5 8.48867 3.5 8.16667V5.83333C3.5 5.51133 3.23867 5.25 2.91667 5.25Z" fill="#717171"/>
<path d="M13.4166 5.25H5.24996C4.92796 5.25 4.66663 5.51133 4.66663 5.83333V8.16667C4.66663 8.48867 4.92796 8.75 5.24996 8.75H13.4166C13.7386 8.75 14 8.48867 14 8.16667V5.83333C14 5.51133 13.7386 5.25 13.4166 5.25Z" fill="#717171"/>
<path d="M2.91667 10.5H0.583333C0.261333 10.5 0 10.7613 0 11.0833V13.4167C0 13.7387 0.261333 14 0.583333 14H2.91667C3.23867 14 3.5 13.7387 3.5 13.4167V11.0833C3.5 10.7613 3.23867 10.5 2.91667 10.5Z" fill="#717171"/>
<path d="M13.4166 10.5H5.24996C4.92796 10.5 4.66663 10.7613 4.66663 11.0833V13.4167C4.66663 13.7387 4.92796 14 5.24996 14H13.4166C13.7386 14 14 13.7387 14 13.4167V11.0833C14 10.7613 13.7386 10.5 13.4166 10.5Z" fill="#717171"/>
</svg>
