<svg width="42" height="41" fill="none" xmlns="http://www.w3.org/2000/svg">
    <g clip-path="url(#a)" fill="#858585">
        <path d="M27.33 16.742a4.1 4.1 0 1 0 0 8.2 4.1 4.1 0 0 0 0-8.2zm0 6.833a2.734 2.734 0 1 1 0-5.467 2.734 2.734 0 0 1 0 5.467zM38.4 17.37a2.733 2.733 0 0 1-2.132-2.132.684.684 0 0 0-.67-.546h-2.801v1.366h2.283a4.09 4.09 0 0 0 2.5 2.5v4.567a4.09 4.09 0 0 0-2.5 2.5h-2.283v1.367h2.802a.684.684 0 0 0 .67-.547 2.733 2.733 0 0 1 2.131-2.133.684.684 0 0 0 .547-.669V18.04a.684.684 0 0 0-.547-.67z"/>
        <path d="M39.63 11.958H28.013v-8.2A3.42 3.42 0 0 0 24.597.342h-20.5A3.42 3.42 0 0 0 .68 3.758v33.484a3.42 3.42 0 0 0 3.417 3.416h20.5a3.42 3.42 0 0 0 3.416-3.416v-7.517H39.63a2.05 2.05 0 0 0 2.05-2.05V14.008a2.05 2.05 0 0 0-2.05-2.05zM26.647 37.242a2.05 2.05 0 0 1-2.05 2.05h-20.5a2.05 2.05 0 0 1-2.05-2.05V3.758a2.05 2.05 0 0 1 2.05-2.05h20.5a2.05 2.05 0 0 1 2.05 2.05v8.2h-6.834v-1.366h-1.366v20.5h1.366v-1.367h6.834v7.517zm13.666-9.567a.683.683 0 0 1-.683.683H19.813V13.325H39.63c.377 0 .683.306.683.683v13.667z"/>
        <path d="M10.93 28.358H5.463a.683.683 0 0 0-.683.684v6.833c0 .377.306.683.683.683h5.467a.683.683 0 0 0 .683-.683v-6.833a.683.683 0 0 0-.683-.684zm-.683 4.784h-2.05v-3.417h2.05v3.417zM6.83 29.725v3.417h-.683v-3.417h.683zm-.683 5.467v-.684h4.1v.684h-4.1zM8.197 3.758a3.405 3.405 0 0 0-2.95 5.125 3.416 3.416 0 1 0 5.9 0 3.406 3.406 0 0 0-2.95-5.125zm0 1.367a2.046 2.046 0 0 1 1.955 2.665c-.017-.012-.036-.02-.053-.031a3.348 3.348 0 0 0-.341-.205l-.06-.033a3.446 3.446 0 0 0-.425-.17c-.04-.014-.082-.024-.123-.035a3.17 3.17 0 0 0-.342-.08c-.045-.008-.09-.017-.136-.023a3.155 3.155 0 0 0-.945 0c-.045.006-.09.015-.137.023-.115.02-.229.047-.341.08-.04.011-.082.021-.122.035a3.422 3.422 0 0 0-.427.17c-.02.01-.038.022-.058.033-.119.06-.234.13-.345.205-.016.01-.035.019-.052.03a2.045 2.045 0 0 1 1.952-2.664zm0 7.517a2.05 2.05 0 1 1 1.272-3.659 2.064 2.064 0 0 1 .575 2.494 2.05 2.05 0 0 1-1.847 1.165zM14.347 30.408h1.366v1.367h-1.366v-1.367zM14.347 27.675h1.366v1.367h-1.366v-1.367zM14.347 24.942h1.366v1.366h-1.366v-1.366zM14.347 22.208h1.366v1.367h-1.366v-1.367zM14.347 19.475h1.366v1.367h-1.366v-1.367zM14.347 16.742h1.366v1.366h-1.366v-1.366zM14.347 14.008h1.366v1.367h-1.366v-1.367zM14.347 11.275h1.366v1.367h-1.366v-1.367z"/>
    </g>
    <defs>
        <clipPath id="a">
            <path fill="#fff" transform="translate(.68)" d="M0 0h41v41H0z"/>
        </clipPath>
    </defs>
</svg>
