<svg width="41" height="41" fill="none" xmlns="http://www.w3.org/2000/svg">
    <g clip-path="url(#a)" fill="#858585">
        <path d="M33.966.317H15.119c-.013 0-.025.006-.038.007A.638.638 0 0 0 14.9.36a.674.674 0 0 0-.26.154l-2.493 2.473h-3.76c-1.858.002-3.363 1.495-3.365 3.337V37.03c.002 1.843 1.507 3.335 3.365 3.338h21.54c1.858-.003 3.363-1.495 3.366-3.338v-1.335h1.346a1.34 1.34 0 0 0 1.346-1.335V2.32a2.011 2.011 0 0 0-2.02-2.002zm-21.064 3.81 1.543-1.531v3.06H11.36l1.543-1.53zm19.044 32.902a2.011 2.011 0 0 1-2.019 2.003H8.387a2.011 2.011 0 0 1-2.019-2.003V6.324c0-1.106.904-2.002 2.02-2.002H10.8l-1.543 1.53a.664.664 0 0 0-.135.196c-.01.02-.015.041-.022.063a.635.635 0 0 0-.035.171c0 .015-.008.027-.008.042V34.36a1.34 1.34 0 0 0 1.346 1.335h21.543v1.335zm-21.54-2.67V6.992h4.04a1.34 1.34 0 0 0 1.346-1.335V1.652h18.174a.67.67 0 0 1 .673.667v32.04H10.407z"/>
        <path d="M12.426 30.354h4.039v1.335h-4.039v-1.335zM19.157 4.322h6.732v1.335h-6.732V4.322zM20.503 6.992h4.04v1.335h-4.04V6.992zM32.62 9.662H12.426a.67.67 0 0 0-.673.667v17.355a.67.67 0 0 0 .673.668h14.136v2.002a.67.67 0 0 0 .673.668h5.385a.67.67 0 0 0 .673-.668V10.33a.67.67 0 0 0-.673-.667zm-.673 17.355h-4.04v-1.335h4.04v1.335zm-5.385-12.015v1.335h-9.424v-1.335h9.424zm5.385 1.335h-4.04v-1.335h4.04v1.335zm0 2.67h-4.04v-1.335h4.04v1.335zm0 2.67h-4.04v-1.335h4.04v1.335zm-18.848-1.335h2.693v1.335h-2.693v-1.335zm0-2.67h2.693v1.335h-2.693v-1.335zm4.039 0h9.424v1.335h-9.424v-1.335zm0 2.67h9.424v1.335h-9.424v-1.335zm-1.346-4.005h-2.693v-1.335h2.693v1.335zm-2.693 6.675h2.693v1.335h-2.693v-1.335zm4.039 0h9.424v1.335h-9.424v-1.335zm10.77 0h4.039v1.335h-4.04v-1.335zM13.099 10.997h18.848v2.67H13.099v-2.67zm0 16.02v-1.335h2.693v1.335h-2.693zm4.039 0v-1.335h9.424v1.335h-9.424zm10.77 1.335h4.039v1.335h-4.04v-1.335z"/>
    </g>
    <defs>
        <clipPath id="a">
            <path fill="#fff" transform="translate(.31 .317)" d="M0 0h40.387v40.05H0z"/>
        </clipPath>
    </defs>
</svg>
