<svg width="23" height="23" viewBox="0 0 23 23" fill="none" xmlns="http://www.w3.org/2000/svg">
<path d="M11.5 0C5.1488 0 0 5.1488 0 11.5C0 17.8512 5.1488 23 11.5 23C17.8512 23 23 17.8512 23 11.5C22.9929 5.15179 17.8482 0.00711265 11.5 0ZM11.5 22.2333C5.57218 22.2333 0.766667 17.4278 0.766667 11.5C0.766667 5.57218 5.57218 0.766667 11.5 0.766667C17.4278 0.766667 22.2333 5.57218 22.2333 11.5C22.2266 17.425 17.425 22.2266 11.5 22.2333Z" fill="#727272"/>
<path d="M16.5601 10.2185H12.9458H10.9743H7.36006V11.8614H10.9743H12.9458H16.5601V10.2185Z" fill="#727272"/>
</svg>
