<svg width="42" height="41" fill="none" xmlns="http://www.w3.org/2000/svg">
    <path d="M31.268 1.743h-19.6a.575.575 0 0 0-.1.01h-.01a.54.54 0 0 0-.164.063.559.559 0 0 0-.116.086l-7.19 7.131A.546.546 0 0 0 4 9.15l-.015.029a.547.547 0 0 0-.049.134v.006a.546.546 0 0 0-.01.102v28.974a.543.543 0 0 0 .34.505.557.557 0 0 0 .212.042h26.79a.555.555 0 0 0 .39-.16.546.546 0 0 0 .162-.387V2.29a.545.545 0 0 0-.162-.387.555.555 0 0 0-.39-.16zM11.116 3.612v5.261H5.81l5.306-5.261zm19.6 34.234H5.029V9.967h6.639a.555.555 0 0 0 .39-.16.546.546 0 0 0 .162-.387V2.838h18.496v35.008zM37.817 11c0-.013 0-.027-.002-.04l-.48-3.238a.546.546 0 0 0-.547-.47h-2.007a.555.555 0 0 0-.547.47l-.48 3.238c-.002.013 0 .027-.002.04-.002.014-.004.026-.004.04v17.57l.003.033a.492.492 0 0 0 .02.114l.007.031 1.483 4.272a.548.548 0 0 0 .522.369.555.555 0 0 0 .522-.37l1.487-4.27.007-.03a.495.495 0 0 0 .02-.115c0-.01.003-.021.003-.033V11.04c0-.014-.003-.026-.005-.04zm-1.1 10.627h-1.865v-10.04h1.865v10.04zm-1.865 1.095h1.865v5.34h-1.865v-5.34zm1.46-14.372.317 2.142h-1.69l.318-2.142h1.055zm-.527 22.85-.71-2.043h1.42l-.71 2.044z" fill="#858585"/>
    <path d="M25.753 16.547H9.993a.554.554 0 0 0-.391.16.545.545 0 0 0 .39.935h15.76a.554.554 0 0 0 .391-.16.545.545 0 0 0-.39-.935zM25.753 19.966H9.993a.554.554 0 0 0-.391.16.545.545 0 0 0 .39.935h15.76a.554.554 0 0 0 .391-.16.545.545 0 0 0 0-.774.554.554 0 0 0-.39-.16zM25.753 13.127H9.993a.554.554 0 0 0-.391.16.545.545 0 0 0 .39.935h15.76a.554.554 0 0 0 .391-.16.545.545 0 0 0-.39-.935zM17.367 7.243h8.386a.554.554 0 0 0 .39-.16.545.545 0 0 0-.39-.935h-8.386a.554.554 0 0 0-.39.16.545.545 0 0 0 .39.935zM12.098 28.733H9.992a.555.555 0 0 0-.39.16.545.545 0 0 0-.162.387v4.708a.544.544 0 0 0 .34.506.555.555 0 0 0 .212.041h2.106a.546.546 0 0 0 .552-.547V29.28a.546.546 0 0 0-.552-.547zm-.552 4.707h-1.002v-3.612h1.002v3.612zM16.65 25.425h-2.106a.559.559 0 0 0-.51.339.544.544 0 0 0-.043.21v8.014a.555.555 0 0 0 .552.548h2.107a.557.557 0 0 0 .51-.338.543.543 0 0 0 .042-.21v-8.014a.543.543 0 0 0-.34-.507.556.556 0 0 0-.212-.041zm-.552 8.015h-1.002v-6.92h1.002v6.92zM21.202 26.702h-2.107a.555.555 0 0 0-.39.16.546.546 0 0 0-.162.388v6.738a.546.546 0 0 0 .552.547h2.107a.555.555 0 0 0 .39-.16.545.545 0 0 0 .162-.387V27.25a.545.545 0 0 0-.162-.387.554.554 0 0 0-.39-.16zm-.553 6.738h-1.002v-5.643h1.002v5.643zM25.753 23.144h-2.106a.555.555 0 0 0-.39.16.546.546 0 0 0-.162.388v10.296a.543.543 0 0 0 .34.506.555.555 0 0 0 .212.041h2.106a.555.555 0 0 0 .51-.338.543.543 0 0 0 .042-.21V23.693a.545.545 0 0 0-.162-.387.554.554 0 0 0-.39-.16zM25.2 33.44H24.2v-9.2H25.2v9.2z" fill="#858585"/>
</svg>
