<svg width="16" height="20" viewBox="0 0 16 20" fill="none" xmlns="http://www.w3.org/2000/svg">
<path d="M15.0701 0H0.929931C0.606338 0 0.343994 0.262344 0.343994 0.585938V19.4141C0.343994 19.7377 0.606338 20 0.929931 20H15.0701C15.3937 20 15.656 19.7377 15.656 19.4141V0.585938C15.656 0.262344 15.3937 0 15.0701 0ZM13.257 12.5935C12.9811 11.1193 11.6854 9.99984 10.1324 9.99984C8.57927 9.99984 7.28353 11.1193 7.00767 12.5935H5.78079V7.6559H14.4842V12.5935H13.257ZM12.1402 13.1795C12.1402 14.2434 10.9106 15.5887 10.1332 16.2969C9.35536 15.5857 8.1245 14.2365 8.1245 13.1795C8.1245 12.0724 9.02521 11.1717 10.1323 11.1717C11.2394 11.1717 12.1402 12.0723 12.1402 13.1795ZM1.51587 12.5935V4.6877H4.60892V12.5935H1.51587ZM14.4841 6.48402H5.78079V1.17188H14.4842V6.48402H14.4841ZM4.60892 1.17188V3.51582H1.51587V1.17188H4.60892ZM1.51587 18.8281V13.7654H7.01864C7.1806 14.5064 7.64067 15.3172 8.39286 16.1842C9.06782 16.9623 9.73661 17.5038 9.76478 17.5265C9.87204 17.6129 10.0022 17.6561 10.1324 17.6561C10.2618 17.6561 10.3911 17.6134 10.4981 17.528C10.5263 17.5055 11.1958 16.9678 11.8713 16.1913C12.6251 15.3248 13.0856 14.5116 13.2468 13.7654H14.4841V18.8281H1.51587Z" fill="#FF0000"/>
<path d="M10.1323 13.8281C10.4559 13.8281 10.7183 13.5658 10.7183 13.2422C10.7183 12.9186 10.4559 12.6562 10.1323 12.6562C9.80872 12.6562 9.54639 12.9186 9.54639 13.2422C9.54639 13.5658 9.80872 13.8281 10.1323 13.8281Z" fill="#FF0000"/>
</svg>
