<svg width="23" height="23" viewBox="0 0 23 23" fill="none" xmlns="http://www.w3.org/2000/svg">
<path d="M11.5 0C5.1488 0 0 5.1488 0 11.5C0 17.8512 5.1488 23 11.5 23C17.8512 23 23 17.8512 23 11.5C22.9929 5.15179 17.8482 0.00711265 11.5 0ZM11.5 22.2333C5.57218 22.2333 0.766667 17.4278 0.766667 11.5C0.766667 5.57218 5.57218 0.766667 11.5 0.766667C17.4278 0.766667 22.2333 5.57218 22.2333 11.5C22.2266 17.425 17.425 22.2266 11.5 22.2333Z" fill="#727272"/>
<path d="M10.9743 10.2185C11.0651 10.2185 11.1386 10.145 11.1386 10.0542V6.43994H12.7815V10.0542C12.7815 10.145 12.855 10.2185 12.9458 10.2185H16.5601V11.8614H12.9458C12.855 11.8614 12.7815 11.9349 12.7815 12.0257V15.6399H11.1386V12.0257C11.1386 11.9349 11.0651 11.8614 10.9743 11.8614H7.36006V10.2185H10.9743Z" fill="#727272"/>
</svg>
