<svg width="38" height="38" fill="none" xmlns="http://www.w3.org/2000/svg">
    <path d="M9.507 11.6H20.45a.557.557 0 0 0 0-1.113H9.507a.557.557 0 1 0 0 1.113zM9.507 16.228H20.45a.557.557 0 1 0 0-1.114H9.507a.557.557 0 1 0 0 1.114zM20.098 28.34c0 1.176 1.593 2.064 3.704 2.064 2.112 0 3.704-.888 3.704-2.064 0-1.177-1.592-2.065-3.704-2.065-2.111 0-3.704.888-3.704 2.065zm6.295 0c0 .335-.983.95-2.59.95-1.608 0-2.592-.615-2.592-.95 0-.336.984-.951 2.591-.951 1.608 0 2.591.615 2.591.95zM34.535 26.832a.556.556 0 0 0-.556-.557h-4.152a.556.556 0 1 0 0 1.114h4.152c.307 0 .556-.25.556-.557zM32.054 29.342h1.925a.557.557 0 0 0 0-1.114h-1.925a.557.557 0 1 0 0 1.114z" fill="#949494"/>
    <path d="M35.955 18.398h-6.678V5.033a2.438 2.438 0 0 0-2.435-2.435h-4.758v-.756A1.843 1.843 0 0 0 20.243 0h-1.66a.557.557 0 1 0 0 1.113h1.66a.73.73 0 0 1 .728.729v2.61a.73.73 0 0 1-.728.73h-1.425c-.862 0-1.563.7-1.563 1.563a.45.45 0 0 1-.45.45h-3.653a.45.45 0 0 1-.45-.45c0-.862-.701-1.564-1.563-1.564H9.713a.729.729 0 0 1-.728-.728V1.842c0-.402.327-.729.728-.729h6.644a.557.557 0 1 0 0-1.113H9.714a1.844 1.844 0 0 0-1.841 1.842v.756H3.115A2.438 2.438 0 0 0 .68 5.033v30.532A2.438 2.438 0 0 0 3.115 38h23.727a2.438 2.438 0 0 0 2.435-2.435v-3.214h3.149a.556.556 0 1 0 0-1.113H19.048a.212.212 0 0 1-.211-.212v-6.364h17.33v6.364a.212.212 0 0 1-.212.212h-1.304a.557.557 0 1 0 0 1.113h1.304c.73 0 1.325-.594 1.325-1.325V19.722c0-.73-.594-1.324-1.325-1.324zm.212 1.324v1.776h-17.33v-1.776c0-.116.095-.211.211-.211h16.907c.117 0 .212.095.212.211zM26.842 3.711c.728 0 1.321.593 1.321 1.322v13.365H27.05V5.96c0-.627-.51-1.137-1.137-1.137h-3.866c.06-.293.029-.455.037-1.113h4.758zm-7.794 28.64h6.889v2.285c0 .014-.011.024-.024.024H4.043a.024.024 0 0 1-.023-.024v-4.358a.557.557 0 1 0-1.113 0v4.358c0 .627.51 1.137 1.137 1.137h21.869c.627 0 1.137-.51 1.137-1.137v-2.285h1.113v3.214c0 .729-.593 1.322-1.321 1.322H3.115a1.323 1.323 0 0 1-1.322-1.322V5.033c0-.73.593-1.322 1.322-1.322h4.758c.008.646-.023.82.037 1.113H4.044c-.627 0-1.137.51-1.137 1.137v22.091a.557.557 0 1 0 1.113 0V5.962c0-.014.01-.024.024-.024h4.582c.305.224.681.356 1.088.356h1.424a.45.45 0 0 1 .45.45c0 .863.702 1.564 1.564 1.564h3.653c.862 0 1.563-.701 1.563-1.564a.45.45 0 0 1 .45-.45h1.424c.407 0 .783-.132 1.088-.356h4.583c.013 0 .023.01.023.023v12.437h-6.888c-.73 0-1.325.594-1.325 1.324v.02H9.507a.557.557 0 1 0 0 1.113h8.217v3.515H9.507a.557.557 0 1 0 0 1.113h8.217v3.515H9.507a.557.557 0 1 0 0 1.113h8.217v.915c0 .73.594 1.325 1.324 1.325zm-.211-8.802v-.938h17.33v.938h-17.33z" fill="#949494"/>
    <path d="M16.358 2.761h-2.76a.557.557 0 1 0 0 1.114h2.76a.557.557 0 1 0 0-1.114z" fill="#949494"/>
</svg>
