<svg width="76" height="41" fill="none" xmlns="http://www.w3.org/2000/svg">
    <path d="M26.228 38.597a.484.484 0 0 0 .504-.056l2.72-2.152 2.72 2.151a.477.477 0 0 0 .591 0l2.718-2.151L38.2 38.54a.476.476 0 0 0 .591 0l2.718-2.151 2.718 2.151a.475.475 0 0 0 .59 0l2.718-2.151 2.717 2.151a.475.475 0 0 0 .295.103.48.48 0 0 0 .49-.47V8.056a.476.476 0 0 0-.14-.325l-5.361-5.546a.484.484 0 0 0-.346-.146H26.44a.492.492 0 0 0-.49.472v35.664a.474.474 0 0 0 .277.423zm19.444-34.92 3.765 3.914h-3.765V3.678zm-18.774-.7h17.827v5.078a.462.462 0 0 0 .284.437.474.474 0 0 0 .18.038h4.9v28.669l-2.252-1.777a.481.481 0 0 0-.595 0l-2.72 2.151-2.718-2.151a.476.476 0 0 0-.591 0l-2.718 2.152-2.718-2.152a.476.476 0 0 0-.59 0l-2.719 2.152-2.718-2.152a.475.475 0 0 0-.295-.103.498.498 0 0 0-.304.102L26.898 37.2V2.976z" fill="#858585"/>
    <path d="M28.318 6.105h.947v1.173h-.947V6.105zM28.318 8.217h.947v12.125h-.947V8.217zM31.236 18.308h8.204v.939h-8.203v-.94zM34.126 14.319h-.257a1.298 1.298 0 0 1-.814-.41 1.278 1.278 0 0 1-.338-.842h-.947c.003.488.169.962.472 1.347.303.385.726.66 1.203.78v1.002h.947v-.968a2.23 2.23 0 0 0 1.376-.833 2.196 2.196 0 0 0-.267-2.97 2.238 2.238 0 0 0-1.504-.579 1.293 1.293 0 0 1-.904-.377 1.272 1.272 0 0 1 0-1.8 1.293 1.293 0 0 1 1.809-.014 1.255 1.255 0 0 1 .376.892h.947c0-1.017-.793-1.958-1.833-2.143V6.34h-.947v1.097a2.227 2.227 0 0 0-1.289.897 2.195 2.195 0 0 0 .368 2.899c.407.356.93.552 1.473.552.329 0 .645.125.883.35a1.265 1.265 0 0 1-.754 2.184zM31.236 21.437h14.515v.938H31.237v-.938zM31.236 24.566h14.515v.938H31.237v-.938zM31.236 27.695h14.515v.938H31.237v-.938zM31.236 30.823h14.515v.94H31.237v-.94zM5.258 32.26a.303.303 0 0 0 .316-.035l1.702-1.347 1.7 1.346a.298.298 0 0 0 .37 0l1.7-1.345 1.7 1.345a.298.298 0 0 0 .37 0l1.7-1.345 1.7 1.345a.297.297 0 0 0 .37 0l1.699-1.345 1.7 1.345a.298.298 0 0 0 .184.065.3.3 0 0 0 .306-.294V13.157a.297.297 0 0 0-.087-.203l-3.354-3.47a.303.303 0 0 0-.216-.091H5.392a.308.308 0 0 0-.306.295v22.307a.297.297 0 0 0 .172.265zM17.42 10.419l2.355 2.448H17.42v-2.448zM5.678 9.98h11.15v3.177a.29.29 0 0 0 .178.273.298.298 0 0 0 .112.024h3.065v17.931l-1.409-1.111a.301.301 0 0 0-.372 0l-1.7 1.346L15 30.274a.298.298 0 0 0-.37 0l-1.7 1.346-1.7-1.346a.298.298 0 0 0-.37 0l-1.7 1.346-1.7-1.346a.297.297 0 0 0-.184-.065.311.311 0 0 0-.19.065l-1.41 1.111V9.98z" fill="#858585"/>
    <path d="M6.566 11.937h.592v.734h-.592v-.734zM6.566 13.258h.592v7.584h-.592v-7.584zM8.391 19.57h5.132v.587H8.39v-.587zM10.199 17.074h-.161a.812.812 0 0 1-.51-.256.8.8 0 0 1-.21-.526h-.593c.002.305.106.601.295.842.19.24.454.413.753.488v.627h.592v-.606c.342-.06.65-.247.86-.521a1.373 1.373 0 0 0-.166-1.857 1.4 1.4 0 0 0-.94-.362.81.81 0 0 1-.566-.237.796.796 0 0 1 0-1.125.81.81 0 0 1 1.13-.01.785.785 0 0 1 .236.559h.592c0-.636-.495-1.225-1.146-1.34v-.666h-.592v.686a1.393 1.393 0 0 0-.806.561 1.372 1.372 0 0 0 .23 1.813 1.4 1.4 0 0 0 .921.346c.206 0 .403.078.552.218a.792.792 0 0 1-.471 1.366zM8.391 21.527h9.079v.587H8.39v-.587zM8.391 23.484h9.079v.587H8.39v-.587zM8.391 25.44h9.079v.588H8.39v-.587zM8.391 27.398h9.079v.587H8.39v-.587zM55.258 32.26a.302.302 0 0 0 .316-.035l1.702-1.347 1.7 1.346a.298.298 0 0 0 .37 0l1.7-1.345 1.7 1.345a.298.298 0 0 0 .37 0l1.7-1.345 1.7 1.345a.297.297 0 0 0 .37 0l1.699-1.345 1.7 1.345a.298.298 0 0 0 .184.065.3.3 0 0 0 .306-.294V13.157a.297.297 0 0 0-.087-.203l-3.354-3.47a.303.303 0 0 0-.216-.091H55.392a.308.308 0 0 0-.306.295v22.307a.297.297 0 0 0 .172.265zM67.42 10.419l2.355 2.448H67.42v-2.448zM55.678 9.98h11.15v3.177a.29.29 0 0 0 .177.273.298.298 0 0 0 .113.024h3.065v17.931l-1.409-1.111a.301.301 0 0 0-.372 0l-1.7 1.346L65 30.274a.298.298 0 0 0-.37 0l-1.7 1.346-1.7-1.346a.298.298 0 0 0-.37 0l-1.7 1.346-1.7-1.346a.297.297 0 0 0-.184-.065.312.312 0 0 0-.19.065l-1.41 1.111V9.98z" fill="#858585"/>
    <path d="M56.566 11.937h.592v.734h-.592v-.734zM56.566 13.258h.592v7.584h-.592v-7.584zM58.391 19.57h5.132v.587H58.39v-.587zM60.199 17.074h-.161a.812.812 0 0 1-.51-.256.8.8 0 0 1-.21-.526h-.593c.002.305.106.601.295.842.19.24.454.413.753.488v.627h.592v-.606c.342-.06.65-.247.86-.521a1.373 1.373 0 0 0-.166-1.857 1.4 1.4 0 0 0-.94-.362.81.81 0 0 1-.566-.237.795.795 0 0 1 0-1.125.81.81 0 0 1 1.13-.01.785.785 0 0 1 .236.559h.592c0-.636-.495-1.225-1.146-1.34v-.666h-.592v.686a1.393 1.393 0 0 0-.806.561 1.372 1.372 0 0 0 .23 1.813 1.4 1.4 0 0 0 .921.346c.206 0 .404.078.552.218a.792.792 0 0 1-.471 1.366zM58.391 21.527h9.078v.587h-9.078v-.587zM58.391 23.484h9.078v.587h-9.078v-.587zM58.391 25.44h9.078v.588h-9.078v-.587zM58.391 27.398h9.078v.587h-9.078v-.587z" fill="#858585"/>
</svg>
