<svg width="30" height="30" viewBox="0 0 30 30" fill="none" xmlns="http://www.w3.org/2000/svg">
<path d="M15 0C6.71582 0 0 6.71582 0 15C0 23.2842 6.71582 30 15 30C23.2842 30 30 23.2842 30 15C29.9907 6.71973 23.2803 0.00927738 15 0ZM15 29C7.26807 29 1 22.7319 1 15C1 7.26807 7.26807 1 15 1C22.7319 1 29 7.26807 29 15C28.9912 22.7283 22.7283 28.9912 15 29Z" fill="#F7A349"/>
<path d="M18.5527 11.0549C17.8244 9.79813 16.5308 9.03029 15.0923 9.00095C15.0309 8.99968 14.9691 8.99968 14.9077 9.00095C13.4693 9.03029 12.1757 9.79813 11.4474 11.0549C10.703 12.3396 10.6826 13.8827 11.3929 15.1828L14.3686 20.6294C14.3699 20.6318 14.3713 20.6342 14.3726 20.6366C14.5036 20.8642 14.7381 21 15.0001 21C15.262 21 15.4965 20.8641 15.6274 20.6366C15.6288 20.6342 15.6302 20.6318 15.6315 20.6294L18.6072 15.1828C19.3174 13.8827 19.2971 12.3396 18.5527 11.0549ZM15 14.4375C14.0695 14.4375 13.3125 13.6805 13.3125 12.75C13.3125 11.8195 14.0695 11.0625 15 11.0625C15.9305 11.0625 16.6875 11.8195 16.6875 12.75C16.6875 13.6805 15.9305 14.4375 15 14.4375Z" fill="#F7A349"/>
</svg>
