<svg width="30" height="38" fill="none" xmlns="http://www.w3.org/2000/svg">
    <path d="M28.497 0H1.507A.557.557 0 0 0 .95.557v26.44a.557.557 0 1 0 1.113 0V1.114H27.94v3.5a.557.557 0 0 0 1.114 0V.557A.557.557 0 0 0 28.497 0zM28.497 6.654a.557.557 0 0 0-.557.556v29.677H2.063v-7.291a.557.557 0 1 0-1.113 0v7.847c0 .308.25.557.557.557h26.99c.308 0 .557-.25.557-.557V7.21a.557.557 0 0 0-.557-.556z" fill="#858585"/>
    <path d="M3.35 11.578a4.31 4.31 0 0 0 4.305 4.305 4.31 4.31 0 0 0 4.305-4.305 4.31 4.31 0 0 0-4.305-4.306 4.31 4.31 0 0 0-4.306 4.306zm4.305 3.192a3.196 3.196 0 0 1-3.192-3.192c0-1.57 1.14-2.879 2.635-3.143v3.143c0 .307.249.556.557.556h3.142a3.197 3.197 0 0 1-3.142 2.636zm3.142-3.749H8.21V8.435a3.2 3.2 0 0 1 2.586 2.586zM4.206 32.089a.557.557 0 0 0-.557.556v2.4c0 .307.25.556.557.556h3.598c.308 0 .557-.25.557-.557v-2.399a.557.557 0 0 0-.557-.556H4.206zm3.042 2.399H4.762v-1.286h2.486v1.286zM10.204 35.6h3.598c.308 0 .557-.248.557-.556v-5.998a.557.557 0 0 0-.557-.556h-3.598a.557.557 0 0 0-.557.556v5.998c0 .308.25.557.557.557zm.556-5.997h2.486v4.885H10.76v-4.885zM16.201 23.991a.557.557 0 0 0-.556.557v10.496c0 .308.249.557.556.557h3.6c.307 0 .556-.25.556-.557V24.548a.557.557 0 0 0-.557-.557h-3.599zm3.043 10.497h-2.486v-9.383h2.486v9.383zM25.798 24.07c.307 0 .556-.25.556-.558V21.55a.557.557 0 0 0-.556-.556H22.2a.557.557 0 0 0-.557.556v13.495c0 .307.25.556.557.556h3.598c.307 0 .556-.249.556-.556V26.11a.557.557 0 1 0-1.113 0v8.377h-2.485v-12.38h2.485v1.405c0 .308.25.557.557.557zM21 2.4H9.004a.557.557 0 0 0-.557.556v2.399c0 .307.25.557.557.557H21c.307 0 .556-.25.556-.557v-2.4A.557.557 0 0 0 21 2.4zm-.557 2.398H9.561V3.512h10.882v1.286zM26.098 7.272H15.002a.557.557 0 1 0 0 1.114h11.096a.557.557 0 1 0 0-1.114zM26.098 9.771H15.002a.557.557 0 1 0 0 1.114h11.096a.557.557 0 1 0 0-1.114zM26.654 12.827a.557.557 0 0 0-.556-.556H15.002a.557.557 0 1 0 0 1.113h11.096c.307 0 .556-.25.556-.557zM22.156 15.326a.557.557 0 0 0-.556-.556h-6.598a.557.557 0 1 0 0 1.113H21.6c.307 0 .556-.25.556-.557zM15.002 18.443H4.88a.557.557 0 1 0 0 1.114H15a.557.557 0 1 0 0-1.114zM15.559 21.5a.557.557 0 0 0-.557-.558H4.88a.557.557 0 1 0 0 1.114H15c.308 0 .558-.25.558-.557zM11.06 23.998a.557.557 0 0 0-.556-.556H4.88a.557.557 0 0 0 0 1.113h5.623c.307 0 .556-.25.556-.557z" fill="#858585"/>
</svg>
