<svg width="30" height="30" viewBox="0 0 30 30" fill="none" xmlns="http://www.w3.org/2000/svg">
<path d="M15 0C6.71582 0 0 6.71582 0 15C0 23.2842 6.71582 30 15 30C23.2842 30 30 23.2842 30 15C29.9907 6.71973 23.2803 0.00927738 15 0ZM15 29C7.26807 29 1 22.7319 1 15C1 7.26807 7.26807 1 15 1C22.7319 1 29 7.26807 29 15C28.9912 22.7283 22.7283 28.9912 15 29Z" fill="#8A7967"/>
<path d="M21.5735 16.8291L17.3296 16.0791C17.1148 16.0413 16.9004 16.1467 16.7996 16.3401L15.7705 18.312C13.9497 17.5056 12.4946 16.0498 11.689 14.2285L13.6589 13.1995C13.8523 13.0986 13.9578 12.8843 13.9199 12.6694L13.1699 8.42602C13.1465 8.29248 13.0698 8.17432 12.9575 8.09839C11.8845 7.37476 10.4998 7.302 9.35693 7.90942C8.21411 8.51709 7.5 9.70581 7.5 11C7.50708 17.3484 12.6516 22.4929 19 22.5C20.2944 22.4998 21.4832 21.7852 22.0906 20.6421C22.6978 19.4988 22.6245 18.1138 21.8999 17.041C21.8242 16.9292 21.7066 16.8525 21.5735 16.8291Z" fill="#8A7967"/>
</svg>
