<svg width="41" height="41" fill="none" xmlns="http://www.w3.org/2000/svg">
    <g clip-path="url(#a)" fill="#858585">
        <path d="M35.944 17.004H32.31v-2.002c0-1.135-.875-2.003-2.02-2.003h-6.73v1.335h6.73c.404 0 .673.267.673.668v7.342H23.56v1.335h15.482v4.005c0 .4-.27.668-.673.668H36.28c-.404-1.803-2.154-2.937-3.971-2.604-1.28.267-2.356 1.269-2.626 2.604H23.56v1.335h6.125c.337 1.802 2.154 3.003 3.972 2.603 1.346-.267 2.356-1.268 2.625-2.603h2.087c1.144 0 2.019-.868 2.019-2.003V21.41l-4.443-4.406zm-2.961 14.018c-1.145 0-2.02-.868-2.02-2.003 0-1.135.875-2.002 2.02-2.002 1.144 0 2.02.867 2.02 2.002 0 1.135-.876 2.003-2.02 2.003zm-.673-8.678V18.34h3.096l3.635 3.605v.4H32.31z"/>
        <path d="m31.84 29.208 1.333-1.322.951.945-1.332 1.321-.952-.944zM27.598 7.66c0-1.87-1.481-3.338-3.366-3.338H8.414c-2.02 0-3.702 1.668-3.702 3.67v22.362H0v2.336c0 2.003 1.683 3.672 3.702 3.672h15.145c1.885-.2 3.366-1.736 3.366-3.672V11.664h5.385V7.66zM1.346 32.69v-1H14.81v1c0 .868.269 1.67.875 2.337H3.702c-1.279 0-2.356-1.068-2.356-2.337zm19.52-25.03v25.03c0 1.269-1.076 2.337-2.355 2.337-1.28 0-2.356-1.068-2.356-2.337v-2.336H6.058V7.993c0-1.268 1.077-2.336 2.356-2.336H21.54c-.404.6-.673 1.268-.673 2.002zm5.386 2.67h-4.04V7.66c0-1.136.876-2.003 2.02-2.003 1.145 0 2.02.867 2.02 2.002v2.67z"/>
        <path d="M10.77 7.66h5.385v1.334H10.77V7.66zM8.077 10.33h10.77v1.334H8.077V10.33zM8.077 13.667h10.77v1.335H8.077v-1.335zM8.077 17.004h10.77v1.335H8.077v-1.335zM8.077 20.342h10.77v1.335H8.077v-1.335zM8.077 27.017h2.693v1.335H8.077v-1.335zM12.116 27.017h2.693v1.335h-2.693v-1.335zM16.155 27.017h2.692v1.335h-2.692v-1.335zM8.077 23.68h10.77v1.334H8.077V23.68z"/>
    </g>
    <defs>
        <clipPath id="a">
            <path fill="#fff" transform="translate(0 .317)" d="M0 0h40.387v40.05H0z"/>
        </clipPath>
    </defs>
</svg>
