<svg width="41" height="41" fill="none" xmlns="http://www.w3.org/2000/svg">
    <path d="M7.988 38.597a.483.483 0 0 0 .504-.056l2.72-2.152 2.72 2.152a.476.476 0 0 0 .591 0l2.718-2.152 2.718 2.152a.476.476 0 0 0 .59 0l2.719-2.152 2.717 2.152a.476.476 0 0 0 .591 0l2.718-2.152 2.717 2.152a.476.476 0 0 0 .295.102.478.478 0 0 0 .49-.47V8.056a.476.476 0 0 0-.14-.325l-5.361-5.546a.484.484 0 0 0-.346-.146H8.2a.492.492 0 0 0-.49.472v35.664a.474.474 0 0 0 .277.423zm19.444-34.92 3.765 3.914h-3.765V3.678zm-18.774-.7h17.827v5.078a.462.462 0 0 0 .284.437.473.473 0 0 0 .18.038h4.9v28.669l-2.252-1.777a.482.482 0 0 0-.595 0l-2.72 2.151-2.718-2.151a.477.477 0 0 0-.591 0l-2.718 2.152-2.718-2.152a.476.476 0 0 0-.591 0l-2.718 2.152-2.718-2.152a.475.475 0 0 0-.296-.103.497.497 0 0 0-.303.102L8.658 37.2V2.976z" fill="#858585"/>
    <path d="M10.078 6.105h.947v1.173h-.947V6.105zM10.078 8.217h.947v12.125h-.947V8.217zM12.996 18.308H21.2v.939h-8.204v-.94zM15.886 14.319h-.257a1.298 1.298 0 0 1-.814-.41 1.277 1.277 0 0 1-.338-.842h-.947c.003.488.169.962.472 1.347.303.385.726.66 1.203.78v1.002h.947v-.968a2.23 2.23 0 0 0 1.376-.833 2.196 2.196 0 0 0-.267-2.97 2.237 2.237 0 0 0-1.504-.579 1.294 1.294 0 0 1-.904-.377 1.272 1.272 0 0 1 0-1.8 1.294 1.294 0 0 1 1.809-.014 1.256 1.256 0 0 1 .376.892h.946c0-1.017-.792-1.958-1.832-2.143V6.34h-.947v1.097a2.227 2.227 0 0 0-1.289.897 2.194 2.194 0 0 0 .368 2.899c.407.356.93.552 1.473.552.329 0 .645.125.883.35a1.266 1.266 0 0 1-.754 2.184zM12.996 21.437H27.51v.938H12.997v-.938zM12.996 24.566H27.51v.938H12.997v-.938zM12.996 27.695H27.51v.938H12.997v-.938zM12.996 30.823H27.51v.94H12.997v-.94z" fill="#858585"/>
</svg>
