<svg xmlns="http://www.w3.org/2000/svg" width="18" height="18" fill="none" viewBox="0 0 18 18">
    <g clip-path="url(#clip0)">
        <path fill="#fff" d="M15.157 10.723h-.377V8.71c0-.752-.61-1.364-1.359-1.364h-.455l1.328-2.525c.138-.263.166-.564.078-.848-.088-.284-.28-.517-.543-.656L8.722.62c-.542-.285-1.215-.076-1.5.466L3.93 7.345h-.82c-.75 0-1.359.612-1.359 1.364v7.38c0 .753.61 1.364 1.359 1.364h10.31c.75 0 1.359-.611 1.359-1.364v-2.014h.377c.182 0 .33-.148.33-.33v-2.69c0-.183-.148-.332-.33-.332zM7.805 1.397c.116-.22.39-.305.61-.19l5.107 2.695c.106.057.184.15.22.266.035.115.024.237-.032.343l-1.49 2.834h-.886l.842-1.6c.04-.078.05-.17.023-.253-.026-.084-.084-.154-.162-.195-.216-.114-.375-.306-.447-.54-.072-.233-.049-.48.065-.696.04-.078.05-.169.023-.253-.026-.084-.084-.154-.161-.195L9.785 2.7c-.161-.085-.36-.023-.446.139-.235.447-.789.619-1.235.383-.161-.085-.36-.023-.445.139L5.563 7.345h-.886l3.128-5.948zm3.155 3.556c.091.296.262.552.494.745l-.866 1.647h-4.28l1.797-3.414c.594.167 1.238-.033 1.633-.508l1.21.638c-.082.29-.079.598.012.892zm3.16 11.136c0 .387-.314.702-.699.702H3.111c-.386 0-.699-.315-.699-.702V8.71c0-.387.313-.701.699-.701h10.31c.385 0 .699.314.699.701v2.014h-1.288c-.921 0-1.67.752-1.67 1.676 0 .925.749 1.676 1.67 1.676h1.288v2.014zm.707-2.676H12.83c-.556 0-1.01-.455-1.01-1.014 0-.558.454-1.013 1.01-1.013h1.996v2.027z"/>
    </g>
    <defs>
        <clipPath id="clip0">
            <path fill="#fff" d="M0 0H16.894V16.96H0z" transform="translate(.172 .493)"/>
        </clipPath>
    </defs>
</svg>
