<svg width="10" height="10" viewBox="0 0 10 10" fill="none" xmlns="http://www.w3.org/2000/svg">
<path d="M5 0C2.24305 0 0 2.24305 0 5C0 7.75695 2.24305 10 5 10C7.75695 10 10 7.75695 10 5C10 2.24305 7.75695 0 5 0ZM5 9.375C2.58758 9.375 0.625003 7.41242 0.625003 5C0.625003 2.58758 2.58758 0.625003 5 0.625003C7.41242 0.625003 9.375 2.58758 9.375 5C9.375 7.41242 7.41242 9.375 5 9.375Z" fill="#454545"/>
<path d="M5.55608 2.14288H5V5.25955L6.74969 7.14288L7.14286 6.71969L5.55608 5.01171V2.14288Z" fill="#454545"/>
</svg>
